<svg width="35" height="12" viewBox="0 0 35 12" fill="none" xmlns="http://www.w3.org/2000/svg">
<g clip-path="url(#clip0)">
<path d="M4 6.33081C4 2.67833 6.66057 0.340332 9.67553 0.340332C12.8034 0.340332 15.1727 2.67833 15.1727 6.15277C15.1727 9.7731 12.6422 11.9974 9.46602 11.9974C6.38642 11.9974 4 9.708 4 6.33081ZM12.819 6.33081C12.819 3.16538 11.5129 1.37953 9.49795 1.37953C7.72449 1.37953 6.3537 2.85636 6.3537 6.02258C6.3537 9.15586 7.74085 10.9582 9.6911 10.9582C11.544 10.9582 12.819 9.41546 12.819 6.33081Z" fill="black"/>
<path d="M16.2693 11.2014L16.7047 11.1041C17.0941 11.0257 17.3496 10.8767 17.3496 10.3739V2.01251L16.2693 1.39527V0.941159L19.1067 0H19.3162V10.3739C19.3162 10.8931 19.6067 11.0555 19.993 11.1363L20.3637 11.2014V11.8351H16.2693V11.2014ZM19.4938 7.61398L21.3957 5.73166C22.0406 5.08226 21.9604 4.62815 21.2672 4.49796L20.7508 4.4007V3.76777H24.7331V4.4007L24.3172 4.48384C23.8554 4.56414 23.4315 4.79213 23.1084 5.13402L21.2991 6.91517L24.8943 11.2994L24.7495 11.8837H22.7829L19.4938 7.61398Z" fill="black"/>
<path d="M26.6031 9.35149V5.47078C26.6031 4.98373 26.41 4.78922 25.9427 4.72412L25.4426 4.64569V4.06061L28.1834 3.54297H28.5729V8.85189C28.5729 10.2158 29.3143 10.5075 30.0527 10.5075C30.6574 10.5019 31.2488 10.3279 31.7615 10.0048V5.47078C31.7615 4.98373 31.5683 4.77275 31.0847 4.72412L30.5527 4.64569V4.06061L33.3426 3.54297H33.7452V10.1468C33.7452 10.5523 33.9548 10.7475 34.4548 10.8126L35 10.8613V11.4644L32.2428 12.0001H31.8721V10.3742C31.2755 11.2503 30.2116 11.9977 28.9903 11.9977C27.8127 11.9977 26.6031 11.1695 26.6031 9.35149Z" fill="black"/>
</g>
<defs>
<clipPath id="clip0">
<rect width="35" height="12" fill="white"/>
</clipPath>
</defs>
</svg>
